<svg width="34" height="24" viewBox="0 0 34 24" fill="none" xmlns="http://www.w3.org/2000/svg">
<path d="M20.8057 16.4C20.1057 16.4 19.5057 17 19.5057 17.7V20.7H3.50573V3.39995H19.5057V6.39995C19.4057 7.09995 20.0057 7.69995 20.8057 7.69995C21.6057 7.69995 22.1057 7.09995 22.1057 6.39995V1.99995C22.1057 1.29995 21.5057 0.699951 20.8057 0.699951H2.10573C1.40573 0.699951 0.805725 1.29995 0.805725 1.99995V22C0.805725 22.7 1.40573 23.3 2.10573 23.3H20.8057C21.5057 23.3 22.1057 22.7 22.1057 22V17.7C22.1057 17 21.5057 16.4 20.8057 16.4Z" fill="#00AEA4"/>
<path d="M32.8057 11.1L27.2057 5.5C26.7057 5 25.8057 5 25.3057 5.5C24.8057 6 24.8057 6.9 25.3057 7.4L28.6057 10.7H16.0057C15.3057 10.7 14.7057 11.3 14.7057 12C14.7057 12.7 15.3057 13.3 16.0057 13.3H28.6057L25.4057 16.7C25.1057 17 25.0057 17.3 25.0057 17.7C25.0057 18 25.1057 18.4 25.4057 18.7C25.9057 19.2 26.8057 19.2 27.3057 18.7L32.9057 13.1C33.3057 12.5 33.3057 11.6 32.8057 11.1Z" fill="#00AEA4"/>
</svg>
