<svg width="50" height="50" viewBox="0 0 50 50" fill="none" xmlns="http://www.w3.org/2000/svg">
<path fill-rule="evenodd" clip-rule="evenodd" d="M16.6667 4.16671C16.6667 3.01611 17.5994 2.08337 18.75 2.08337H31.25C32.4006 2.08337 33.3333 3.01611 33.3333 4.16671C33.3333 5.3173 32.4006 6.25004 31.25 6.25004H27.0833V8.33337C27.0833 8.36962 27.0824 8.40564 27.0806 8.44143C37.0333 9.4812 44.7917 17.8971 44.7917 28.125C44.7917 39.0557 35.9306 47.9167 25 47.9167C14.0694 47.9167 5.20833 39.0557 5.20833 28.125C5.20833 17.8971 12.9667 9.4812 22.9194 8.44143C22.9176 8.40564 22.9167 8.36962 22.9167 8.33337V6.25004H18.75C17.5994 6.25004 16.6667 5.3173 16.6667 4.16671ZM25 12.5C16.3705 12.5 9.37499 19.4956 9.37499 28.125C9.37499 36.7545 16.3705 43.75 25 43.75C33.6294 43.75 40.625 36.7545 40.625 28.125C40.625 19.4956 33.6294 12.5 25 12.5ZM25 17.7084C26.1506 17.7084 27.0833 18.6411 27.0833 19.7917V27.0834H33.3333C34.4839 27.0834 35.4167 28.0161 35.4167 29.1667C35.4167 30.3173 34.4839 31.25 33.3333 31.25H25C23.8494 31.25 22.9167 30.3173 22.9167 29.1667C22.9167 28.9869 22.9394 28.8123 22.9823 28.6459C22.9394 28.4794 22.9167 28.3049 22.9167 28.125V19.7917C22.9167 18.6411 23.8494 17.7084 25 17.7084Z" fill="#00AEA4"/>
</svg>
