<svg width="50" height="50" viewBox="0 0 50 50" fill="none" xmlns="http://www.w3.org/2000/svg">
<path fill-rule="evenodd" clip-rule="evenodd" d="M27.0833 6.25008C27.0833 5.00008 26.25 4.16675 25 4.16675C20.4166 4.16675 16.875 7.08341 14.375 9.58342C13.1958 10.7626 11.9807 12.0903 11.1895 13.5417H6.24998C3.95831 13.5417 2.08331 15.4167 2.08331 17.7084V32.0834C2.08331 34.3751 3.95831 36.2501 6.24998 36.2501H11.1458L11.4583 36.8751C12.2916 37.9168 13.125 39.1667 14.375 40.4168C16.6666 42.9168 20.4166 45.8334 25 45.8334C26.25 45.8334 27.0833 45.0001 27.0833 43.7501V6.25008ZM15 34.5834C15.625 35.4168 16.4583 36.4584 17.5 37.5001C19.0464 39.2011 20.9371 40.6726 22.9166 41.3181V8.67851C20.9371 9.31373 19.0464 10.7453 17.5 12.2917C16.4583 13.5417 15.625 14.5834 15 15.4167C14.1015 16.3152 13.8638 17.7084 12.2916 17.7084H6.24998V32.0834H12.2916C14.1484 32.0834 14.0215 33.605 15 34.5834Z" fill="#00AEA4"/>
<path d="M34.721 14.0711C33.8627 13.3047 32.5458 13.3792 31.7794 14.2374C31.013 15.0956 31.0875 16.4126 31.9457 17.179C32.4851 17.6607 32.9748 18.2008 33.4052 18.7901C34.6665 20.5169 35.4167 22.6635 35.4167 25.0001C35.4167 27.3163 34.6793 29.4459 33.4379 31.1651C32.9996 31.7719 32.4988 32.3272 31.9457 32.8211C31.0875 33.5875 31.013 34.9045 31.7794 35.7627C32.5458 36.6209 33.8628 36.6954 34.721 35.929C35.4993 35.234 36.2021 34.4542 36.8159 33.6044C38.5571 31.1932 39.5833 28.214 39.5833 25.0001C39.5833 21.758 38.5392 18.7548 36.77 16.3325C36.1671 15.507 35.4799 14.7488 34.721 14.0711Z" fill="#00AEA4"/>
<path d="M37.0408 5.49819C36.0623 4.89287 34.7784 5.19538 34.1731 6.17388C33.5678 7.15237 33.8703 8.43631 34.8488 9.04163C40.1953 12.3492 43.7499 18.2604 43.7499 25.0001C43.7499 31.846 40.0822 37.8374 34.5945 41.1129C33.6065 41.7026 33.2837 42.9816 33.8734 43.9696C34.4631 44.9576 35.7421 45.2804 36.7301 44.6907C43.4251 40.6946 47.9166 33.3729 47.9166 25.0001C47.9166 16.7574 43.5634 9.53325 37.0408 5.49819Z" fill="#00AEA4"/>
</svg>
